<?xml version="1.0" encoding="UTF-8"?><svg xmlns="http://www.w3.org/2000/svg" viewBox="0 0 60 60"><defs><style>.c{fill:#fff;}.d{fill:#f39719;}.e{fill:#1d1e1c;font-family:Arial-Black, Arial Black;font-size:18.97px;}.f{fill:none;stroke:#f39719;stroke-miterlimit:10;stroke-width:1.9px;}</style></defs><g id="a"/><g id="b"><g><g><circle class="f" cx="35.23" cy="37.51" r="18.26"/><text class="e" transform="translate(28.82 44.3)"><tspan x="0" y="0">3</tspan></text></g><g><polygon class="d" points="19.08 2.23 23.58 11.38 33.65 12.84 26.37 19.97 28.09 30.02 19.08 25.27 10.07 30.02 11.79 19.97 4.51 12.84 14.58 11.38 19.08 2.23"/><path class="c" d="M19.05,17.22h1.32v1.18h-1.17c-.01,.28-.06,.53-.13,.76-.06,.17-.16,.35-.3,.53,.16-.04,.3-.06,.42-.06,.15,0,.34,.03,.58,.1,.32,.09,.58,.13,.78,.13,.16,0,.3-.02,.42-.05s.27-.1,.46-.2l.59,1.47c-.29,.16-.54,.28-.76,.34-.22,.06-.45,.09-.7,.09-.27,0-.58-.05-.94-.16-.46-.14-.75-.23-.86-.25-.11-.02-.23-.04-.36-.04-.37,0-.79,.15-1.24,.45l-.56-1.41c.61-.5,.91-1,.91-1.49,0-.03,0-.1,0-.22h-.9v-1.18h.65c-.11-.44-.17-.69-.19-.76-.02-.11-.03-.24-.03-.39,0-.41,.1-.78,.29-1.11,.19-.33,.45-.57,.76-.72,.31-.15,.74-.22,1.27-.22,.5,0,.89,.06,1.19,.19,.29,.13,.54,.34,.74,.63,.2,.3,.34,.65,.42,1.07l-1.66,.3c-.08-.35-.18-.59-.29-.7-.11-.12-.23-.17-.37-.17-.17,0-.3,.06-.41,.19-.1,.13-.16,.3-.16,.53,0,.12,0,.24,.03,.35,.02,.11,.09,.38,.21,.8Z"/></g></g></g></svg>