<?xml version="1.0" encoding="UTF-8"?><svg xmlns="http://www.w3.org/2000/svg" viewBox="0 0 160 240"><defs><style>.e{fill:#fff;}.f{fill:#39f;}</style></defs><g id="a"><g><g><path class="f" d="M33.96,177.09c17.71,44.52,40.85,61.5,78.21,42.47,18.72-9.54,19.41-35.79,12.67-49.07-9.3-18.3,.63-25.12,6.97-37.86,36.58-73.45-37.08-76.13-72.91-62.5-52.95,20.15-42.65,62.43-24.94,106.95Z"/><g><path class="f" d="M145.11,36c-.17,13.7-6.8,25.43-18.8,26.4-12,.97-21.59-9.35-21.42-23.05,.17-13.7,10.05-25.59,22.05-26.56,12-.97,18.35,9.5,18.17,23.2Z"/><ellipse class="f" cx="83.64" cy="42.32" rx="14.29" ry="17.13" transform="translate(-9.66 33.29) rotate(-21.31)"/><ellipse class="f" cx="56.66" cy="51.96" rx="11.03" ry="13.5" transform="translate(-13.91 21.45) rotate(-19.14)"/><ellipse class="f" cx="37.17" cy="64.13" rx="9.11" ry="10.4" transform="translate(-23.69 21.81) rotate(-25.09)"/><ellipse class="f" cx="22.33" cy="77.56" rx="7.24" ry="8.27" transform="translate(-30.78 16.79) rotate(-25.09)"/></g></g><path class="e" d="M81.53,177.62v-15.21h-29.01v-12.68l30.75-48.01h11.41v47.95h8.8v12.74h-8.8v15.21h-13.15Zm0-27.95v-25.83l-16.29,25.83h16.29Z"/></g></g><g id="b"/><g id="c"/><g id="d"/></svg>