<?xml version="1.0" encoding="UTF-8"?><svg xmlns="http://www.w3.org/2000/svg" viewBox="0 0 160 240"><defs><style>.e{fill:#fff;}.f{fill:#3c6;}</style></defs><g id="a"><g><g><path class="f" d="M33.96,177.09c17.71,44.52,40.85,61.5,78.21,42.47,18.72-9.54,19.41-35.79,12.67-49.07-9.3-18.3,.63-25.12,6.97-37.86,36.58-73.45-37.08-76.13-72.91-62.5-52.95,20.15-42.65,62.43-24.94,106.95Z"/><g><path class="f" d="M145.11,36c-.17,13.7-6.8,25.43-18.8,26.4-12,.97-21.59-9.35-21.42-23.05,.17-13.7,10.05-25.59,22.05-26.56,12-.97,18.35,9.5,18.17,23.2Z"/><ellipse class="f" cx="83.64" cy="42.32" rx="14.29" ry="17.13" transform="translate(-9.66 33.29) rotate(-21.31)"/><ellipse class="f" cx="56.66" cy="51.96" rx="11.03" ry="13.5" transform="translate(-13.91 21.45) rotate(-19.14)"/><ellipse class="f" cx="37.17" cy="64.13" rx="9.11" ry="10.4" transform="translate(-23.69 21.81) rotate(-25.09)"/><ellipse class="f" cx="22.33" cy="77.56" rx="7.24" ry="8.27" transform="translate(-30.78 16.79) rotate(-25.09)"/></g></g><path class="e" d="M56.16,156.83l13.54-1.49c.39,3.27,1.53,5.85,3.43,7.76,1.9,1.91,4.09,2.86,6.58,2.86,2.84,0,5.24-1.23,7.2-3.69,1.97-2.46,2.95-6.16,2.95-11.11,0-4.64-.97-8.12-2.92-10.44s-4.49-3.48-7.61-3.48c-3.9,0-7.4,1.84-10.49,5.52l-11.02-1.7,6.96-39.34h35.92v13.56h-25.62l-2.13,12.84c3.03-1.62,6.12-2.42,9.28-2.42,6.03,0,11.14,2.34,15.33,7.01,4.19,4.68,6.29,10.74,6.29,18.2,0,6.22-1.69,11.77-5.08,16.65-4.61,6.67-11.01,10-19.19,10-6.54,0-11.88-1.87-16-5.62-4.13-3.75-6.59-8.78-7.4-15.11Z"/></g></g><g id="b"/><g id="c"/><g id="d"/></svg>