<?xml version="1.0" encoding="UTF-8"?><svg xmlns="http://www.w3.org/2000/svg" viewBox="0 0 60 60"><defs><style>.c{fill:#676767;}.d{fill:#fff;}.e{fill:#1d1e1c;font-family:Arial-Black, Arial Black;font-size:18.97px;}.f{fill:none;stroke:#676767;stroke-miterlimit:10;stroke-width:1.9px;}</style></defs><g id="a"><g><g><circle class="f" cx="35.19" cy="37.54" r="18.26"/><text class="e" transform="translate(28.82 44.3)"><tspan x="0" y="0">1</tspan></text></g><g><polygon class="c" points="19.12 2.2 23.63 11.35 33.7 12.81 26.41 19.93 28.13 29.99 19.12 25.24 10.12 29.99 11.84 19.93 4.55 12.81 14.62 11.35 19.12 2.2"/><path class="d" d="M16.9,18.65l1.26,.52c-.08,.49-.22,.89-.4,1.22s-.41,.57-.68,.74c-.27,.17-.61,.25-1.03,.25-.5,0-.92-.1-1.24-.3-.32-.2-.6-.56-.83-1.06-.23-.51-.35-1.16-.35-1.95,0-1.06,.2-1.87,.61-2.44s.99-.85,1.73-.85c.58,0,1.04,.16,1.38,.49s.58,.83,.75,1.5l-1.27,.39c-.04-.19-.09-.34-.14-.43-.08-.15-.18-.27-.29-.35-.12-.08-.25-.12-.39-.12-.32,0-.57,.18-.75,.54-.13,.27-.2,.69-.2,1.26,0,.71,.08,1.19,.23,1.46s.38,.39,.66,.39,.48-.11,.62-.32,.24-.52,.31-.92Z"/><path class="d" d="M18.5,18.34c0-1.04,.21-1.86,.63-2.44,.42-.58,1.01-.87,1.76-.87s1.37,.28,1.79,.86c.42,.57,.63,1.37,.63,2.4,0,.75-.09,1.36-.27,1.84-.18,.48-.45,.85-.79,1.12-.34,.27-.78,.4-1.29,.4s-.96-.12-1.3-.34-.62-.59-.83-1.09c-.21-.5-.32-1.12-.32-1.87Zm1.43,0c0,.65,.09,1.11,.26,1.39s.41,.42,.71,.42,.55-.14,.72-.41c.17-.28,.25-.77,.25-1.49,0-.6-.09-1.04-.26-1.32-.18-.28-.42-.42-.72-.42s-.52,.14-.7,.42-.26,.75-.26,1.4Z"/><path class="d" d="M24.73,23.1h-1.75c.02-.22,.08-.44,.18-.63,.1-.2,.29-.43,.57-.7,.17-.17,.28-.29,.33-.38s.07-.17,.07-.24c0-.08-.02-.15-.07-.21-.05-.06-.11-.09-.18-.09s-.13,.03-.18,.09-.08,.17-.09,.32l-.58-.06c.02-.21,.06-.38,.13-.5,.06-.12,.15-.21,.26-.28,.11-.06,.26-.1,.46-.1s.36,.03,.48,.09c.11,.06,.2,.15,.27,.28,.07,.13,.1,.27,.1,.42,0,.17-.04,.33-.11,.48s-.21,.32-.41,.5c-.12,.11-.2,.18-.23,.22-.04,.04-.09,.1-.14,.17h.91v.62Z"/></g></g></g><g id="b"/></svg>