<?xml version="1.0" encoding="UTF-8"?><svg xmlns="http://www.w3.org/2000/svg" viewBox="0 0 160 240"><defs><style>.e{fill:#fff;}.f{fill:#f63;}</style></defs><g id="a"><g><g><path class="f" d="M33.96,177.09c17.71,44.52,40.85,61.5,78.21,42.47,18.72-9.54,19.41-35.79,12.67-49.07-9.3-18.3,.63-25.12,6.97-37.86,36.58-73.45-37.08-76.13-72.91-62.5-52.95,20.15-42.65,62.43-24.94,106.95Z"/><g><path class="f" d="M145.11,36c-.17,13.7-6.8,25.43-18.8,26.4-12,.97-21.59-9.35-21.42-23.05,.17-13.7,10.05-25.59,22.05-26.56,12-.97,18.35,9.5,18.17,23.2Z"/><ellipse class="f" cx="83.64" cy="42.32" rx="14.29" ry="17.13" transform="translate(-9.66 33.29) rotate(-21.31)"/><ellipse class="f" cx="56.66" cy="51.96" rx="11.03" ry="13.5" transform="translate(-13.91 21.45) rotate(-19.14)"/><ellipse class="f" cx="37.17" cy="64.13" rx="9.11" ry="10.4" transform="translate(-23.69 21.81) rotate(-25.09)"/><ellipse class="f" cx="22.33" cy="77.56" rx="7.24" ry="8.27" transform="translate(-30.78 16.79) rotate(-25.09)"/></g></g><path class="e" d="M103.81,164.16v13.46H56.19c.51-5.09,2.06-9.91,4.64-14.46,2.58-4.55,7.67-10.6,15.28-18.12,6.12-6.08,9.88-10.21,11.27-12.38,1.87-2.99,2.8-5.95,2.8-8.87,0-3.23-.81-5.71-2.44-7.45-1.63-1.74-3.88-2.6-6.75-2.6s-5.09,.91-6.77,2.73c-1.68,1.82-2.64,4.85-2.9,9.08l-13.54-1.44c.8-7.97,3.34-13.7,7.59-17.17,4.25-3.47,9.57-5.21,15.96-5.21,6.99,0,12.49,2.01,16.49,6.03,4,4.02,6,9.02,6,15,0,3.4-.57,6.64-1.72,9.72-1.14,3.08-2.96,6.3-5.44,9.67-1.64,2.23-4.61,5.45-8.9,9.64-4.29,4.19-7,6.98-8.15,8.35-1.14,1.38-2.07,2.72-2.78,4.02h26.98Z"/></g></g><g id="b"/><g id="c"/><g id="d"/></svg>