<?xml version="1.0" encoding="UTF-8"?><svg xmlns="http://www.w3.org/2000/svg" viewBox="0 0 160 240"><defs><style>.e{fill:#fff;}.f{fill:#969;}</style></defs><g id="a"><g><g><path class="f" d="M33.96,177.09c17.71,44.52,40.85,61.5,78.21,42.47,18.72-9.54,19.41-35.79,12.67-49.07-9.3-18.3,.63-25.12,6.97-37.86,36.58-73.45-37.08-76.13-72.91-62.5-52.95,20.15-42.65,62.43-24.94,106.95Z"/><g><path class="f" d="M145.11,36c-.17,13.7-6.8,25.43-18.8,26.4-12,.97-21.59-9.35-21.42-23.05,.17-13.7,10.05-25.59,22.05-26.56,12-.97,18.35,9.5,18.17,23.2Z"/><ellipse class="f" cx="83.64" cy="42.32" rx="14.29" ry="17.13" transform="translate(-9.66 33.29) rotate(-21.31)"/><ellipse class="f" cx="56.66" cy="51.96" rx="11.03" ry="13.5" transform="translate(-13.91 21.45) rotate(-19.14)"/><ellipse class="f" cx="37.17" cy="64.13" rx="9.11" ry="10.4" transform="translate(-23.69 21.81) rotate(-25.09)"/><ellipse class="f" cx="22.33" cy="77.56" rx="7.24" ry="8.27" transform="translate(-30.78 16.79) rotate(-25.09)"/></g></g><path class="e" d="M55.45,157.56l13.15-1.7c.42,3.58,1.55,6.31,3.38,8.2s4.06,2.84,6.67,2.84c2.8,0,5.17-1.13,7.08-3.4,1.92-2.27,2.88-5.33,2.88-9.18,0-3.64-.92-6.53-2.76-8.66-1.84-2.13-4.08-3.2-6.72-3.2-1.74,0-3.82,.36-6.24,1.08l1.5-11.81c3.67,.1,6.48-.75,8.41-2.55,1.93-1.8,2.9-4.2,2.9-7.19,0-2.54-.71-4.57-2.13-6.08-1.42-1.51-3.3-2.27-5.66-2.27s-4.3,.86-5.95,2.58-2.64,4.23-3,7.53l-12.52-2.27c.87-4.57,2.18-8.22,3.94-10.96,1.76-2.73,4.21-4.88,7.35-6.45,3.14-1.56,6.66-2.35,10.56-2.35,6.67,0,12.02,2.27,16.05,6.81,3.32,3.71,4.98,7.91,4.98,12.58,0,6.63-3.4,11.93-10.2,15.88,4.06,.93,7.31,3.01,9.74,6.24,2.43,3.23,3.65,7.13,3.65,11.71,0,6.63-2.27,12.29-6.82,16.96-4.54,4.67-10.2,7.01-16.97,7.01-6.41,0-11.73-1.97-15.96-5.9-4.22-3.94-6.67-9.08-7.35-15.44Z"/></g></g><g id="b"/><g id="c"/><g id="d"/></svg>